<!DOCTYPE svg PUBLIC "-//W3C//DTD SVG 20010904//EN" "http://www.w3.org/TR/2001/REC-SVG-20010904/DTD/svg10.dtd">
<svg
  version="1.0"
  xmlns="http://www.w3.org/2000/svg"
  width="200px"
  height="200px"
  viewBox="0 0 2000 2000"
  preserveAspectRatio="xMidYMid meet"
>
  <g id="layer101">
    <path
      d="M291 1563 c-34 -43 -79 -114 -101 -159 -122 -245 -122 -564 0 -808 37 -76 152 -236 168 -236 4 0 32 24 61 54 l53 54 -51 67 c-112 146 -161 287 -161 465 0 191 50 326 184 494 l29 37 -54 55 c-29 29 -56 54 -60 54 -3 0 -34 -35 -68 -77z"
    />
    <path
      d="M1581 1586 l-54 -55 29 -37 c134 -168 184 -303 184 -494 0 -178 -56 -338 -165 -470 -25 -30 -45 -57 -45 -60 0 -3 25 -30 55 -60 l56 -55 34 40 c153 176 225 370 225 606 0 154 -27 275 -91 403 -37 76 -152 236 -168 236 -4 0 -31 -25 -60 -54z"
    />
    <path
      d="M491 1413 c-52 -61 -106 -169 -125 -253 -9 -36 -16 -108 -16 -160 0 -52 7 -124 16 -160 20 -87 74 -195 128 -256 l44 -49 41 39 40 39 -39 45 c-79 89 -120 206 -120 342 0 135 42 254 122 345 l37 42 -37 36 c-21 21 -41 37 -44 37 -4 0 -25 -21 -47 -47z"
    />
    <path
      d="M1417 1422 l-37 -38 26 -25 c78 -73 134 -223 134 -358 0 -136 -42 -255 -122 -346 l-37 -42 40 -39 41 -39 44 49 c54 61 108 169 128 256 9 36 16 108 16 160 0 115 -19 202 -65 295 -33 65 -107 165 -124 165 -4 0 -24 -17 -44 -38z"
    />
    <path
      d="M1028 1285 c-40 -80 -75 -145 -78 -145 -3 0 -18 25 -33 55 l-27 55 -120 0 -120 0 0 -50 0 -50 80 0 80 0 75 -150 75 -150 -35 0 c-34 0 -36 2 -80 90 l-45 90 -50 -25 c-28 -14 -50 -28 -50 -30 0 -3 25 -55 55 -115 l55 -110 138 0 137 0 49 75 48 75 84 0 84 0 0 50 0 50 -118 0 -117 0 -25 -40 c-14 -22 -27 -40 -31 -40 -3 0 -14 18 -24 41 l-19 41 92 184 c51 101 92 186 92 189 0 3 -22 16 -50 30 l-50 25 -72 -145z"
    />
    <path
      d="M1076 724 c-37 -38 -37 -110 0 -148 38 -37 110 -37 148 0 37 38 37 110 0 148 -21 21 -36 26 -74 26 -38 0 -53 -5 -74 -26z"
    />
  </g>
</svg>
